HIERARCHY
ROOT root
{
	OFFSET 0.000000 0.000000 0.000000
	CHANNELS 6 Xposition Yposition Zposition Zrotation Yrotation Xrotation
	JOINT lhip
	{
		OFFSET 0.058581 -0.082280 -0.017664
		CHANNELS 3 Zrotation Yrotation Xrotation
		JOINT lknee
		{
			OFFSET 0.043451 -0.386469 0.008037
			CHANNELS 3 Zrotation Yrotation Xrotation
			JOINT lankle
			{
				OFFSET -0.014790 -0.426874 -0.037428
				CHANNELS 3 Zrotation Yrotation Xrotation
				JOINT ltoe
				{
					OFFSET 0.041054 -0.060286 0.122042
					CHANNELS 3 Zrotation Yrotation Xrotation
					End Site
					{
						OFFSET 0.000000 0.000000 0.000000
					}
				}
			}
		}
	}
	JOINT rhip
	{
		OFFSET -0.060310 -0.090513 -0.013543
		CHANNELS 3 Zrotation Yrotation Xrotation
		JOINT rknee
		{
			OFFSET -0.043257 -0.383688 -0.004843
			CHANNELS 3 Zrotation Yrotation Xrotation
			JOINT rankle
			{
				OFFSET 0.019056 -0.420046 -0.034562
				CHANNELS 3 Zrotation Yrotation Xrotation
				JOINT rtoe
				{
					OFFSET -0.034840 -0.062106 0.130323
					CHANNELS 3 Zrotation Yrotation Xrotation
					End Site
					{
						OFFSET 0.000000 0.000000 0.000000
					}
				}
			}
		}
	}
	JOINT lowerback
	{
		OFFSET 0.004439 0.124404 -0.038385
		CHANNELS 3 Zrotation Yrotation Xrotation
		JOINT upperback
		{
			OFFSET 0.004488 0.137956 0.026820
			CHANNELS 3 Zrotation Yrotation Xrotation
			JOINT chest
			{
				OFFSET -0.002265 0.056032 0.002855
				CHANNELS 3 Zrotation Yrotation Xrotation
				JOINT lowerneck
				{
					OFFSET -0.013390 0.211636 -0.033468
					CHANNELS 3 Zrotation Yrotation Xrotation
					JOINT upperneck
					{
						OFFSET 0.010113 0.088937 0.050410
						CHANNELS 3 Zrotation Yrotation Xrotation
						End Site
						{
							OFFSET 0.000000 0.000000 0.000000
						}
					}
				}
				JOINT lclavicle
				{
					OFFSET 0.071702 0.114000 -0.018898
					CHANNELS 3 Zrotation Yrotation Xrotation
					JOINT lshoulder
					{
						OFFSET 0.122921 0.045205 -0.019046
						CHANNELS 3 Zrotation Yrotation Xrotation
						JOINT lelbow
						{
							OFFSET 0.255332 -0.015649 -0.022946
							CHANNELS 3 Zrotation Yrotation Xrotation
							JOINT lwrist
							{
								OFFSET 0.265709 0.012698 -0.007375
								CHANNELS 3 Zrotation Yrotation Xrotation
								End Site
								{
									OFFSET 0.000000 0.000000 0.000000
								}
							}
						}
					}
				}
				JOINT rclavicle
				{
					OFFSET -0.082954 0.112472 -0.023707
					CHANNELS 3 Zrotation Yrotation Xrotation
					JOINT rshoulder
					{
						OFFSET -0.113228 0.046853 -0.008472
						CHANNELS 3 Zrotation Yrotation Xrotation
						JOINT relbow
						{
							OFFSET -0.260127 -0.014369 -0.031269
							CHANNELS 3 Zrotation Yrotation Xrotation
							JOINT rwrist
							{
								OFFSET -0.269108 0.006794 -0.006027
								CHANNELS 3 Zrotation Yrotation Xrotation
								End Site
								{
									OFFSET 0.000000 0.000000 0.000000
								}
							}
						}
					}
				}
			}
		}
	}
}
MOTION
Frames: 17
Frame Time: 0.033333
0.505939 0.316271 0.952710 95.000439 3.351087 90.017199 6.690466 -2.180971 -1.726123 -2.385941 -8.895744 23.772811 3.922660 6.748794 -31.588820 0.000000 -0.000000 0.000000 -15.953765 -6.559653 -24.278515 2.118089 -1.441749 15.383800 14.264365 2.852296 7.665398 0.000000 -0.000000 0.000000 -0.508951 -1.006045 5.133816 5.443779 -3.015650 5.893221 1.458982 -0.271589 -3.008288 -6.992054 2.261669 9.874846 3.236494 0.251942 -17.591370 -15.097662 -7.035411 0.223151 -47.027848 -12.129474 14.759680 140.822652 -63.398222 -117.530695 25.026389 -27.054996 -22.700079 15.421470 12.676758 -1.386426 30.310342 20.270254 -4.900370 -97.768341 63.448645 -80.633346 -23.247008 28.731952 -14.780384 
0.520817 0.301054 0.952103 100.422730 3.047186 90.486827 8.593784 -2.498096 -1.797237 -2.757953 -11.338455 22.430622 3.416720 4.259059 -31.285837 0.000000 -0.000000 0.000000 -16.917512 -7.841461 -22.838831 1.950363 -1.608788 14.953389 14.656761 3.181508 9.424147 0.000000 -0.000000 0.000000 -0.908904 -0.520166 4.235125 5.392229 -2.986458 6.257984 1.219785 0.174203 -3.536601 -6.749491 0.161969 10.519602 4.123733 -2.489612 -16.454755 -14.919780 -8.247246 0.301270 -46.944767 -14.731247 16.242475 148.497749 -62.270505 -124.767489 25.514743 -28.004629 -23.778412 15.380616 14.070729 -1.273353 28.372365 21.867498 -6.567568 -99.709990 61.928255 -82.008760 -24.019996 29.082275 -13.975891 
0.537604 0.283261 0.950691 106.687894 2.430851 90.874614 10.421506 -3.029314 -2.239726 -3.175303 -14.491542 21.087409 2.635702 2.054757 -30.770452 0.000000 -0.000000 0.000000 -17.756620 -9.229831 -20.584014 1.587816 -3.610427 16.886844 13.867817 2.162116 7.441996 0.000000 -0.000000 0.000000 -1.679960 0.086031 3.536855 5.152032 -2.952888 6.294740 1.021485 0.721655 -3.748930 -6.727453 -2.706041 11.167348 5.463922 -5.354950 -15.412311 -14.645511 -9.267792 0.504051 -47.352470 -17.547501 17.894160 155.320153 -61.392764 -131.669587 26.104592 -28.392522 -25.026505 15.149475 15.322044 -1.290023 26.851236 23.215523 -8.216321 -101.059992 60.624998 -82.413065 -25.233020 29.150165 -13.031479 
0.555606 0.263586 0.948224 113.362032 1.715719 91.175795 12.302820 -3.463698 -3.152709 -3.446377 -17.892865 19.662685 1.335507 -0.017618 -29.777260 0.000000 -0.000000 0.000000 -18.264994 -10.679825 -17.471862 1.599416 -6.828967 18.522985 11.193655 0.796480 0.306804 0.000000 -0.000000 0.000000 -2.288162 0.864657 3.159186 4.480546 -2.854402 6.138289 0.817974 1.348530 -3.736042 -6.767633 -6.005174 11.768167 7.039063 -8.479111 -14.526744 -14.635488 -10.092975 0.637229 -47.698750 -20.348517 19.497599 161.082278 -60.736229 -137.422744 26.775373 -29.016715 -25.618017 14.626179 16.728830 -1.503455 25.948223 24.565079 -9.578546 -102.762219 59.191140 -83.360372 -26.739252 29.457453 -13.045369 
0.573136 0.242563 0.945685 119.431648 1.105252 91.599279 14.358888 -3.348570 -4.522275 -3.564309 -20.620349 17.937164 -0.131574 -1.965494 -28.238193 0.000000 -0.000000 0.000000 -17.997346 -12.347411 -15.713582 1.446987 -9.575844 21.094343 8.376458 -0.702747 -6.252936 0.000000 -0.000000 0.000000 -2.602405 1.753186 2.933378 3.584371 -2.344513 5.965701 0.472416 2.173892 -3.608326 -6.589948 -9.180325 12.270600 8.499174 -11.668697 -13.862029 -14.898736 -10.737142 0.500452 -48.007748 -22.586328 20.927429 166.016765 -60.017806 -142.245042 27.296203 -29.336929 -26.487563 14.231457 18.469871 -1.464894 25.406511 26.930317 -11.007760 -103.394418 58.284021 -83.151481 -28.307906 29.370202 -13.327392 
0.588378 0.221552 0.943501 124.208914 0.475391 92.136102 16.044164 -2.807113 -6.115280 -3.453625 -22.012648 16.234985 -1.505018 -3.356659 -26.561059 0.000000 -0.000000 0.000000 -17.506067 -13.244811 -15.907101 0.949633 -11.217000 25.122010 6.749567 -1.922580 -11.340386 0.000000 -0.000000 0.000000 -2.642936 2.514020 2.786363 2.551483 -1.466633 6.302690 -0.107681 3.312385 -3.906207 -6.306613 -11.937163 12.844500 9.851312 -14.408282 -13.625331 -15.072879 -11.412658 0.304838 -48.695889 -23.746792 22.249575 169.529997 -59.192288 -145.703125 28.119220 -29.145131 -27.472697 13.993273 21.301241 -0.397967 24.433920 30.835509 -12.286887 -101.329584 57.916715 -80.391665 -31.296795 29.474145 -13.824678 
0.601764 0.201692 0.940391 127.689031 -0.159870 92.523809 17.297031 -1.988407 -7.404358 -3.173979 -21.746177 14.628464 -2.763100 -4.233225 -24.820720 0.000000 -0.000000 0.000000 -17.112355 -13.472904 -16.995524 0.282142 -12.960777 29.723521 5.811728 -2.479706 -15.379981 0.000000 -0.000000 0.000000 -2.585176 3.004200 2.585046 1.481248 -0.532497 7.493980 -0.701919 4.765289 -4.630450 -5.927686 -13.933902 13.700911 11.005799 -16.593088 -13.852795 -14.962158 -12.635129 -0.045146 -49.845989 -23.799317 23.568825 171.172672 -58.536449 -147.809767 28.658238 -28.946603 -27.944733 13.741020 25.819457 1.403701 22.010431 35.288691 -13.231325 -94.559005 57.998692 -73.952566 -34.079733 30.250554 -14.939262 
0.613336 0.184152 0.935945 129.937379 -0.914953 92.740680 17.951047 -1.013542 -8.023494 -2.736564 -20.305709 13.142013 -3.750227 -4.729688 -23.404739 0.000000 -0.000000 0.000000 -16.964061 -14.036257 -18.323118 -0.542288 -14.632266 33.954943 5.165120 -2.152282 -18.353556 0.000000 -0.000000 0.000000 -2.542206 3.391639 2.458704 0.320544 0.423964 8.994645 -1.281973 6.335091 -5.549820 -5.261957 -15.217651 14.650873 11.583295 -18.284345 -13.805369 -14.513099 -14.052778 -0.784433 -51.649473 -23.283598 25.196460 171.297494 -58.361681 -148.936098 27.180114 -29.684829 -27.488728 13.400115 30.961193 3.127549 18.625684 39.500114 -14.092890 -81.512494 56.973704 -61.706387 -32.265647 31.712065 -13.861968 
0.622938 0.168747 0.931076 130.993672 -1.662782 92.939888 18.268637 0.095336 -8.012193 -2.211822 -18.896897 11.659112 -4.327698 -4.551619 -22.421329 0.000000 -0.000000 0.000000 -16.810252 -14.824919 -19.829156 -0.990275 -15.234284 37.427738 4.497272 -1.763115 -20.841059 0.000000 -0.000000 0.000000 -2.605254 3.802919 2.482029 -0.746187 1.522217 10.357249 -1.926387 7.900327 -6.578909 -4.100299 -16.050714 15.227142 11.722543 -19.536235 -13.355162 -13.465074 -14.828104 -1.585687 -54.349887 -23.357330 26.953412 171.051245 -58.821638 -149.081494 24.846592 -30.153493 -26.578807 12.399294 34.836777 4.432356 16.141525 43.387054 -15.252780 -67.459135 52.501944 -46.673569 -29.545742 32.146515 -8.250620 
0.631475 0.155371 0.925878 131.887742 -2.232195 93.165304 18.885293 1.020187 -8.082755 -1.863813 -18.205289 10.209538 -4.969786 -4.869877 -21.480438 0.000000 -0.000000 0.000000 -16.505390 -15.696727 -21.092939 -1.386250 -15.684173 40.238551 3.697083 -1.599702 -23.307611 0.000000 -0.000000 0.000000 -2.986639 4.074146 2.885425 -1.431308 2.314188 10.529706 -2.293487 8.815136 -6.934030 -2.716567 -16.332908 15.424126 12.236146 -20.418173 -13.152429 -12.240804 -14.520603 -2.218509 -56.944190 -23.770527 28.264622 171.172227 -59.050665 -148.969160 22.781569 -30.420071 -25.939779 11.744112 36.525902 5.169499 15.366231 46.366997 -16.254758 -61.985701 48.790807 -40.037241 -28.090651 32.080102 -4.828354 
0.639074 0.145214 0.920597 133.317300 -2.524894 93.315788 19.847539 1.534807 -8.742800 -2.032722 -18.424246 9.485523 -5.636456 -5.680471 -20.686999 0.000000 -0.000000 0.000000 -16.364203 -16.316910 -21.958375 -1.878394 -16.480585 42.978305 3.333119 -1.564152 -25.043783 0.000000 -0.000000 0.000000 -3.533799 4.025898 3.290618 -1.410253 2.402740 10.178013 -2.082534 8.540143 -6.559810 -2.162647 -16.125797 15.372654 12.676620 -20.407902 -13.443738 -11.975966 -13.833600 -2.423417 -57.930287 -23.758366 28.546077 171.393363 -58.654745 -148.845438 22.326675 -30.390578 -25.912853 11.709026 36.506176 5.008379 15.935811 48.498965 -16.025421 -62.005112 48.708248 -40.037901 -27.993404 31.453867 -6.705726 
0.645057 0.138852 0.916619 134.514648 -2.522615 93.178430 20.628571 1.656617 -9.195856 -2.306322 -19.106076 9.464629 -5.940199 -5.872971 -20.575980 0.000000 -0.000000 0.000000 -16.206444 -16.235823 -22.151654 -2.231282 -17.309996 44.886439 3.079843 -2.036106 -26.238755 0.000000 -0.000000 0.000000 -3.922712 3.698109 3.441532 -0.935140 1.951677 10.316338 -1.626955 7.670722 -6.298695 -2.621916 -15.670465 15.737631 12.718087 -19.343080 -13.882495 -12.188628 -13.571233 -1.908502 -57.465562 -23.322787 27.746229 171.099845 -58.301918 -148.400922 23.196439 -30.078223 -26.296509 11.724055 36.043387 4.586041 16.663282 49.613443 -15.458800 -62.060711 49.413449 -40.109673 -28.352264 30.804970 -8.495238 
0.648209 0.135702 0.914168 134.563712 -2.450992 92.801456 20.918723 1.601284 -9.053459 -2.377025 -19.638278 10.044071 -5.907024 -5.472248 -21.116364 0.000000 -0.000000 0.000000 -15.875936 -15.688348 -22.202808 -2.536293 -17.317120 45.871112 2.869927 -2.679205 -26.931327 0.000000 -0.000000 0.000000 -4.081150 3.267776 3.765291 -0.583598 1.456152 10.128823 -1.317172 7.094324 -5.844115 -3.236526 -15.106700 16.130573 12.577796 -18.082213 -13.965560 -12.166897 -13.556671 -1.456515 -56.586878 -23.092744 26.896506 170.427923 -58.513202 -148.150303 24.128795 -29.304880 -27.200188 11.761746 35.493918 4.347163 16.829744 49.748669 -15.324460 -61.439970 49.548932 -38.725882 -28.605829 30.525075 -7.702036 
0.648870 0.135203 0.913056 133.624769 -2.353611 92.409660 20.939353 1.518154 -8.932169 -2.650304 -19.828369 11.749493 -5.725843 -4.975448 -22.027173 0.000000 -0.000000 0.000000 -15.448534 -15.076127 -22.392625 -2.721528 -16.571112 46.212108 2.741068 -3.122441 -27.135732 0.000000 -0.000000 0.000000 -4.070054 2.832074 4.283763 -0.485740 1.048522 9.346924 -1.150954 6.781684 -5.135336 -3.466514 -14.318285 16.000960 12.306374 -17.299256 -13.603173 -12.029965 -13.464943 -1.500320 -55.853151 -23.061124 26.146209 169.867832 -58.906129 -147.488008 24.079897 -29.084107 -27.214160 11.777786 34.873916 4.005888 17.089283 49.260375 -15.168746 -61.042083 49.753116 -38.095323 -28.230559 30.370617 -7.404712 
0.647093 0.137249 0.913749 131.967113 -2.299506 92.133603 20.552440 1.048714 -9.162071 -3.145495 -19.731323 14.733664 -5.327314 -4.185843 -23.162499 0.000000 -0.000000 0.000000 -15.231932 -14.527789 -22.621943 -2.590292 -15.569681 45.856965 2.603975 -3.181650 -26.791460 0.000000 -0.000000 0.000000 -3.936142 2.514260 4.693414 -0.518879 0.718246 8.676712 -1.167482 6.525305 -4.616585 -3.598509 -13.514880 15.427419 11.911934 -16.609930 -13.198612 -11.928824 -13.205606 -1.715748 -55.293510 -23.021732 25.586244 169.459280 -59.065475 -146.617644 23.696081 -28.965307 -26.763576 11.665516 34.088645 3.577447 17.725959 48.699325 -14.689462 -61.022563 50.296336 -38.413012 -27.854867 30.000147 -7.923989 
0.643042 0.141948 0.916020 129.660406 -2.245623 91.876929 19.714508 -0.018217 -9.454671 -3.683487 -19.625421 18.602968 -4.576956 -2.723514 -24.596494 0.000000 -0.000000 0.000000 -15.260019 -13.859969 -22.700472 -2.085467 -14.434009 44.727411 2.471333 -2.991549 -25.855770 0.000000 -0.000000 0.000000 -3.723649 2.349625 4.932814 -0.555778 0.439262 8.410113 -1.361310 6.289931 -4.434714 -3.797333 -12.721752 14.620362 11.427866 -15.626395 -12.693766 -11.945726 -13.071150 -1.723459 -54.500461 -22.931684 25.119539 168.549699 -59.093204 -145.771043 23.876236 -28.661205 -27.371388 11.710475 33.286129 3.286281 18.617893 47.891339 -13.806911 -61.344870 51.078866 -39.279816 -27.565973 29.423104 -8.440469 
0.637170 0.149239 0.919015 127.083049 -1.990559 91.679510 18.820891 -1.541663 -9.885605 -4.312443 -19.635568 22.905179 -3.712869 -1.122016 -25.944776 0.000000 -0.000000 0.000000 -15.287086 -12.907358 -22.665695 -1.398628 -13.285130 43.029878 2.487318 -2.810600 -24.456179 0.000000 -0.000000 0.000000 -3.310638 2.262347 5.244960 -0.523146 0.214843 7.755861 -1.561701 5.929953 -4.224152 -4.050310 -11.744102 13.974195 11.052757 -14.597371 -12.170806 -12.179605 -12.581419 -1.688248 -53.410251 -22.809218 24.490875 166.956336 -59.494176 -144.392421 22.975464 -28.805559 -27.710952 11.971019 32.009407 3.102113 20.404862 46.488942 -12.208000 -62.444919 52.428111 -41.174720 -25.326275 28.669333 -9.390235 
